<?xml version="1.0" encoding="utf-8"?>
<!-- Generator: Adobe Illustrator 25.0.0, SVG Export Plug-In . SVG Version: 6.00 Build 0)  -->
<svg version="1.1" id="Camada_1" xmlns="http://www.w3.org/2000/svg" xmlns:xlink="http://www.w3.org/1999/xlink" x="0px" y="0px"
	 viewBox="0 0 1496 437.3" style="enable-background:new 0 0 1496 437.3;" xml:space="preserve">
<style type="text/css">
	.st0{clip-path:url(#SVGID_2_);fill:#E9EEB8;}
	.st1{clip-path:url(#SVGID_4_);fill:#E9EEB8;}
	.st2{clip-path:url(#SVGID_6_);fill:#E9EEB8;}
	.st3{clip-path:url(#SVGID_8_);fill:#E9EEB8;}
	.st4{clip-path:url(#SVGID_10_);fill:#E9EEB8;}
	.st5{clip-path:url(#SVGID_12_);fill:#E9EEB8;}
</style>
<g>
	<defs>
		<rect id="SVGID_1_" y="265.8" width="1496" height="171.6"/>
	</defs>
	<clipPath id="SVGID_2_">
		<use xlink:href="#SVGID_1_"  style="overflow:visible;"/>
	</clipPath>
	<path class="st0" d="M1471.1,305.4c4,0,8.2,0.5,12.3,1.4c4.2,1,8,2.5,11.4,4.6l-5.7,12.1c-2.5-2-5.4-3.6-8.6-4.6
		c-3.2-1.1-6.4-1.6-9.5-1.6c-4.2,0-7.8,0.9-10.9,2.8c-3.1,1.9-4.6,4.7-4.6,8.7c0,4.2,1.4,7.3,4.1,9.3c2.7,2,6.1,3.9,10,5.7
		c3,1.4,6,2.9,9,4.3c3,1.4,5.9,3.2,8.5,5.2c2.6,2,4.7,4.5,6.3,7.5c1.6,3,2.4,6.7,2.4,11.1c0,6.1-1.5,11.1-4.6,15.1
		c-3,4-6.9,6.9-11.8,8.9c-4.8,1.9-10,2.9-15.4,2.9c-4.8,0-9.6-0.7-14.6-2c-4.9-1.3-9.4-3.2-13.5-5.5l6.6-11.6c2.9,2,6,3.7,9.5,5.1
		c3.5,1.4,7,2.1,10.5,2.1c4.3,0,8.1-1,11.3-3.1c3.3-2.1,4.9-5.2,4.9-9.5c0-2.9-0.9-5.2-2.7-7.1c-1.8-1.9-4-3.6-6.8-5.1
		c-2.7-1.5-5.6-2.9-8.6-4.2c-3.6-1.7-7.1-3.5-10.5-5.5c-3.5-2-6.3-4.6-8.5-7.9c-2.2-3.2-3.3-7.4-3.3-12.5c0-5.8,1.6-10.7,4.7-14.6
		c3.2-3.9,7.2-6.8,12.1-8.8C1460.4,306.4,1465.6,305.4,1471.1,305.4z M1397.2,362v-5.4c-3.1,0-6.5,0.1-10.4,0.4
		c-3.8,0.2-7.5,0.9-11.1,2c-3.6,1.1-6.5,2.9-8.9,5.3c-2.3,2.4-3.5,5.7-3.5,9.8c0,3.7,1.3,6.4,3.9,8.1c2.6,1.7,5.8,2.6,9.5,2.6
		c4,0,7.6-1.1,10.6-3.4c3-2.3,5.4-5.2,7.1-8.7C1396.3,369.3,1397.2,365.7,1397.2,362z M1384.7,305.4c9.4,0,16.5,2.5,21.4,7.6
		c4.9,5.1,7.3,12.3,7.3,21.7v43.2c0,2.7,0.5,4.6,1.4,5.5c0.9,1,2.1,1.4,3.6,1.4c1.1,0,2.2-0.2,3.4-0.5c1.2-0.3,2.3-0.7,3.4-1.1
		l3.2,10.2c-2,1.2-4.5,2.2-7.5,3.1c-3,0.9-6,1.3-9.1,1.3c-3.3,0-6.2-0.9-8.8-2.6c-2.5-1.7-4.1-4.9-4.8-9.5c-3.5,3.9-7.5,7-12.1,9.2
		c-4.6,2.2-9.5,3.3-14.7,3.3c-7,0-12.9-2.1-17.6-6.2c-4.7-4.1-7-9.8-7-17c0-6.8,1.6-12.2,4.8-16.2c3.2-4,7.4-7.1,12.6-9.2
		c5.2-2.1,10.7-3.5,16.5-4.2c5.8-0.7,11.3-1.1,16.4-1.1v-10c0-4.9-1-8.9-3-12c-2-3.1-5.8-4.6-11.4-4.6c-4.4,0-8.7,0.9-12.8,2.8
		c-4.1,1.9-8.1,4.5-12,7.8l-7.7-11.4c5-3.8,10.4-6.7,16.3-8.6C1372.4,306.4,1378.5,305.4,1384.7,305.4z M1303.4,396.5h-20.4
		c-2.3,1.5-4.3,3.8-6.2,6.7c-1.9,2.9-2.9,5.7-2.9,8.5c0,2.9,1,5.2,3,7.1c2,1.9,4.5,3.3,7.5,4.3c3,1,5.7,1.4,8.2,1.4
		c4,0,8.3-0.6,12.8-1.7c4.5-1.1,8.2-3,11.3-5.7c3.1-2.7,4.6-6.4,4.6-11.2c0-3.1-1-5.3-2.9-6.6c-2-1.3-4.3-2.1-7.1-2.4
		C1308.7,396.6,1306.1,396.5,1303.4,396.5z M1293.6,316.7c-4.2,0-7.7,1.9-10.6,5.6c-2.9,3.8-4.4,8.4-4.4,13.9c0,5.6,1.5,10.3,4.4,14
		c2.9,3.8,6.4,5.6,10.4,5.6c4.6,0,8.3-1.8,11.1-5.5c2.7-3.6,4.1-8.3,4.1-14c0-5.6-1.5-10.3-4.4-14
		C1301.3,318.5,1297.8,316.7,1293.6,316.7z M1293.6,305.2c3.5,0,6.7,0.4,9.8,1.3c3.1,0.9,6.3,1.4,9.6,1.4c4.6,0,9.4-0.3,14.2-0.8
		c4.8-0.5,9.8-1.1,14.9-1.9l-3.4,13.4h-14.5c-0.8,0-1.7-0.1-2.5-0.2c-0.8-0.1-1.7-0.2-2.5-0.4c2,2.6,3.5,5.4,4.6,8.3
		c1,2.9,1.5,5.9,1.5,9c0,6-1.4,11.3-4.1,16.1c-2.7,4.8-6.7,8.5-11.8,11.1c-5.1,2.7-11.2,4-18.2,4c-2.7,0-5.2,0.7-7.3,2.2
		c-2.1,1.5-3.2,3.8-3.2,6.9c0,2,0.6,3.5,1.8,4.4c1.2,0.9,2.7,1.4,4.5,1.5c1.8,0.1,3.6,0.2,5.4,0.2h15.5c3.2,0,6.5,0.2,9.8,0.6
		c3.3,0.4,6.4,1.3,9.3,2.5c2.9,1.3,5.2,3.1,6.9,5.6c1.7,2.5,2.6,5.9,2.6,10.2c0,6.5-1.3,12.1-4,16.8c-2.7,4.6-6.3,8.5-10.7,11.4
		c-4.5,3-9.5,5.1-15,6.4c-5.5,1.3-11.1,2-16.7,2c-3.3,0-6.9-0.4-10.7-1.1c-3.8-0.7-7.4-1.9-10.7-3.6c-3.3-1.7-6-4-8.1-6.9
		c-2.1-2.9-3.1-6.5-3.1-10.9c0-4.6,1.4-8.7,4.3-12.3c2.9-3.6,6.2-6.5,10-8.8v-0.7c-2.5-1.1-4.5-2.8-6.1-5.1
		c-1.5-2.3-2.3-4.8-2.3-7.6c0-1.4,0.6-2.8,1.8-4.1c1.2-1.3,2.7-3.1,4.6-5.4c1.9-2.3,3.9-5.4,6.1-9.3c-4.3-2.9-7.7-6.5-10.2-11
		c-2.6-4.5-3.9-9.3-3.9-14.5c0-5.8,1.5-11.1,4.4-15.7c2.9-4.6,6.8-8.3,11.7-11.1C1282.6,306.6,1287.9,305.2,1293.6,305.2z
		 M1221.7,307.5h18.4v88.7h-16.2v-78.4L1221.7,307.5z M1243.3,277.2c0,3.1-1.1,5.8-3.3,8c-2.2,2.3-5,3.4-8.3,3.4
		c-3.1,0-5.7-1.1-7.9-3.4c-2.2-2.3-3.3-4.9-3.3-8c0-3.1,1.1-5.8,3.3-8c2.2-2.3,4.9-3.4,8.1-3.4c3.1,0,5.8,1.1,8,3.4
		C1242.1,271.4,1243.3,274.1,1243.3,277.2z M1175.6,282h11.8c-0.8,4.2-1.6,8.4-2.2,12.7c-0.6,4.4-1.1,8.6-1.3,12.8h22.9l-3,11.8
		h-19.8v55.2c0,2.1,0.2,4.1,0.7,5.8c0.5,1.7,1.4,3.1,2.7,4.1c1.3,1,3.2,1.5,5.7,1.5c1.9,0,3.8-0.2,5.7-0.5c1.9-0.4,3.8-0.8,5.5-1.2
		l2.5,10.7c-3,0.8-5.9,1.6-8.9,2.3c-2.9,0.7-6.1,1.1-9.5,1.1c-7.6,0-13-2-16.1-6c-3.1-4-4.6-9.7-4.6-17v-55.9H1154v-9.5
		c4.8-0.1,8.6-1.7,11.4-4.8c2.9-3,5.1-6.7,6.6-11C1173.6,289.9,1174.8,285.8,1175.6,282z M1061.7,308.3l17.7-2.3
		c0.8,2,1.5,4.1,2,6.1c0.5,2.1,0.9,4.2,1.2,6.4c3.6-3.5,7.8-6.5,12.7-9.1c4.9-2.6,9.8-3.9,14.8-3.9c6.7,0,12,1.3,15.9,4
		c3.9,2.7,6.8,6.4,8.6,11.1c1.8,4.7,2.7,10.2,2.7,16.4v59.5H1121v-55.2c0-3.5-0.2-6.9-0.7-10.2c-0.5-3.4-1.7-6.2-3.7-8.3
		c-2-2.1-5.2-3.2-9.7-3.2c-2.6,0-5.4,0.6-8.3,1.7c-2.9,1.1-5.6,2.6-8.2,4.3c-2.5,1.7-4.8,3.6-6.7,5.5v65.5h-16.1v-63
		c0-2.3-0.2-5-0.5-8.1c-0.4-3.1-1-6.3-1.8-9.4C1064.5,312.7,1063.3,310.2,1061.7,308.3z M1023,362v-5.4c-3.1,0-6.5,0.1-10.4,0.4
		c-3.8,0.2-7.5,0.9-11.1,2c-3.6,1.1-6.5,2.9-8.8,5.3c-2.3,2.4-3.5,5.7-3.5,9.8c0,3.7,1.3,6.4,3.9,8.1c2.6,1.7,5.8,2.6,9.5,2.6
		c4,0,7.6-1.1,10.6-3.4c3-2.3,5.4-5.2,7.1-8.7C1022.1,369.3,1023,365.7,1023,362z M1010.5,305.4c9.4,0,16.5,2.5,21.4,7.6
		c4.9,5.1,7.3,12.3,7.3,21.7v43.2c0,2.7,0.5,4.6,1.4,5.5c1,1,2.1,1.4,3.6,1.4c1.1,0,2.2-0.2,3.4-0.5c1.2-0.3,2.3-0.7,3.4-1.1
		l3.2,10.2c-2,1.2-4.5,2.2-7.5,3.1c-3,0.9-6,1.3-9.1,1.3c-3.3,0-6.2-0.9-8.7-2.6c-2.5-1.7-4.1-4.9-4.8-9.5c-3.5,3.9-7.5,7-12,9.2
		c-4.6,2.2-9.5,3.3-14.7,3.3c-7,0-12.9-2.1-17.6-6.2c-4.7-4.1-7.1-9.8-7.1-17c0-6.8,1.6-12.2,4.8-16.2c3.2-4,7.4-7.1,12.6-9.2
		c5.2-2.1,10.7-3.5,16.5-4.2c5.8-0.7,11.3-1.1,16.4-1.1v-10c0-4.9-1-8.9-3-12c-2-3.1-5.8-4.6-11.4-4.6c-4.4,0-8.7,0.9-12.7,2.8
		c-4.1,1.9-8.1,4.5-12.1,7.8l-7.7-11.4c5-3.8,10.4-6.7,16.4-8.6C998.3,306.4,1004.3,305.4,1010.5,305.4z M890.9,305.4
		c4,0,8.2,0.5,12.3,1.4c4.2,1,8,2.5,11.4,4.6l-5.7,12.1c-2.5-2-5.4-3.6-8.6-4.6c-3.2-1.1-6.4-1.6-9.5-1.6c-4.2,0-7.8,0.9-10.9,2.8
		c-3.1,1.9-4.6,4.7-4.6,8.7c0,4.2,1.4,7.3,4.1,9.3c2.7,2,6.1,3.9,10,5.7c3,1.4,6,2.9,9,4.3c3,1.4,5.9,3.2,8.5,5.2
		c2.6,2,4.7,4.5,6.3,7.5c1.6,3,2.4,6.7,2.4,11.1c0,6.1-1.5,11.1-4.6,15.1c-3,4-6.9,6.9-11.8,8.9c-4.8,1.9-10,2.9-15.4,2.9
		c-4.8,0-9.6-0.7-14.6-2c-4.9-1.3-9.4-3.2-13.5-5.5l6.6-11.6c2.9,2,6,3.7,9.5,5.1c3.5,1.4,7,2.1,10.5,2.1c4.3,0,8.1-1,11.3-3.1
		c3.3-2.1,4.9-5.2,4.9-9.5c0-2.9-0.9-5.2-2.7-7.1c-1.8-1.9-4-3.6-6.8-5.1c-2.7-1.5-5.6-2.9-8.6-4.2c-3.6-1.7-7.1-3.5-10.5-5.5
		c-3.4-2-6.3-4.6-8.5-7.9c-2.2-3.2-3.3-7.4-3.3-12.5c0-5.8,1.6-10.7,4.7-14.6c3.2-3.9,7.2-6.8,12.1-8.8
		C880.2,306.4,885.4,305.4,890.9,305.4z M817,362v-5.4c-3.1,0-6.5,0.1-10.4,0.4c-3.8,0.2-7.5,0.9-11.1,2c-3.6,1.1-6.5,2.9-8.9,5.3
		c-2.3,2.4-3.5,5.7-3.5,9.8c0,3.7,1.3,6.4,3.9,8.1c2.6,1.7,5.8,2.6,9.5,2.6c4,0,7.6-1.1,10.6-3.4c3-2.3,5.4-5.2,7.1-8.7
		C816.1,369.3,817,365.7,817,362z M804.5,305.4c9.4,0,16.5,2.5,21.4,7.6c4.9,5.1,7.3,12.3,7.3,21.7v43.2c0,2.7,0.5,4.6,1.4,5.5
		c1,1,2.1,1.4,3.6,1.4c1.1,0,2.2-0.2,3.4-0.5c1.2-0.3,2.3-0.7,3.4-1.1l3.2,10.2c-2,1.2-4.5,2.2-7.5,3.1c-3,0.9-6,1.3-9.1,1.3
		c-3.3,0-6.2-0.9-8.8-2.6c-2.5-1.7-4.1-4.9-4.8-9.5c-3.5,3.9-7.5,7-12.1,9.2c-4.6,2.2-9.5,3.3-14.7,3.3c-7,0-12.9-2.1-17.6-6.2
		c-4.7-4.1-7-9.8-7-17c0-6.8,1.6-12.2,4.8-16.2c3.2-4,7.4-7.1,12.6-9.2c5.2-2.1,10.7-3.5,16.5-4.2c5.8-0.7,11.3-1.1,16.4-1.1v-10
		c0-4.9-1-8.9-3-12c-2-3.1-5.8-4.6-11.4-4.6c-4.4,0-8.7,0.9-12.8,2.8c-4.1,1.9-8.1,4.5-12,7.8l-7.7-11.4c5-3.8,10.4-6.7,16.3-8.6
		C792.3,306.4,798.3,305.4,804.5,305.4z M724.9,282h11.8c-0.8,4.2-1.6,8.4-2.2,12.7c-0.7,4.4-1.1,8.6-1.4,12.8h22.9l-3,11.8h-19.8
		v55.2c0,2.1,0.2,4.1,0.7,5.8c0.5,1.7,1.4,3.1,2.7,4.1c1.3,1,3.2,1.5,5.7,1.5c1.9,0,3.8-0.2,5.7-0.5c1.9-0.4,3.8-0.8,5.5-1.2
		l2.5,10.7c-3,0.8-5.9,1.6-8.9,2.3c-2.9,0.7-6.1,1.1-9.5,1.1c-7.6,0-13-2-16.1-6c-3.1-4-4.6-9.7-4.6-17v-55.9h-13.6v-9.5
		c4.8-0.1,8.6-1.7,11.4-4.8c2.9-3,5.1-6.7,6.6-11C722.8,289.9,724,285.8,724.9,282z M611,308.3l17.7-2.3c0.8,2,1.5,4.1,2.1,6.1
		c0.5,2.1,0.9,4.2,1.1,6.4c3.6-3.5,7.8-6.5,12.7-9.1c4.9-2.6,9.8-3.9,14.8-3.9c6.7,0,12,1.3,15.9,4c3.9,2.7,6.8,6.4,8.6,11.1
		c1.8,4.7,2.7,10.2,2.7,16.4v59.5h-16.2v-55.2c0-3.5-0.2-6.9-0.7-10.2c-0.5-3.4-1.7-6.2-3.6-8.3c-2-2.1-5.2-3.2-9.8-3.2
		c-2.6,0-5.4,0.6-8.3,1.7c-2.9,1.1-5.7,2.6-8.2,4.3c-2.6,1.7-4.8,3.6-6.7,5.5v65.5h-16.1v-63c0-2.3-0.2-5-0.5-8.1
		c-0.4-3.1-1-6.3-1.8-9.4C613.7,312.7,612.5,310.2,611,308.3z M561.4,317.4c-4,0-7.6,1.1-10.6,3.3c-3,2.2-5.4,5-7.2,8.5
		c-1.8,3.5-3,7-3.6,10.5H579c0.2-4.6-0.4-8.6-1.8-12c-1.4-3.3-3.5-5.9-6.2-7.7C568.4,318.3,565.2,317.4,561.4,317.4z M562.6,305.4
		c7.4,0,13.5,1.5,18.5,4.5c4.9,3,8.7,7.2,11.2,12.5c2.5,5.3,3.8,11.4,3.8,18.1c0,1.7-0.1,3.4-0.3,5.2c-0.2,1.8-0.4,3.7-0.8,5.7
		h-56.1c0,10.8,2.5,19.2,7.4,25.2c5,6,11.5,8.9,19.6,8.9c3.5,0,7.1-0.5,10.9-1.6c3.8-1.1,7.7-2.7,11.8-5l5.5,9.6
		c-4,3.3-8.8,5.8-14.3,7.5c-5.5,1.7-10.8,2.5-16.1,2.5c-9.3,0-17.1-2.1-23.3-6.4c-6.2-4.3-10.9-9.9-14-17c-3.1-7-4.6-14.5-4.6-22.3
		c0-6.1,0.9-11.9,2.6-17.5c1.7-5.6,4.3-10.7,7.8-15.3c3.4-4.6,7.7-8.2,12.7-10.8C549.9,306.7,555.8,305.4,562.6,305.4z M375,308.1
		l17.7-2c0.8,1.9,1.5,3.9,2,6c0.5,2.1,0.9,4.2,1.2,6.2c3.5-3.2,7.4-6.2,12-8.9c4.5-2.7,9.3-4,14.3-4c5.5,0,10.2,1.1,14.3,3.4
		c4,2.3,7.3,5.9,9.6,11.1c3.7-3.7,7.9-7,12.8-10c4.8-3,9.9-4.5,15.3-4.5c6.5,0,11.8,1.4,15.6,4.1c3.9,2.7,6.7,6.4,8.4,11.1
		c1.7,4.6,2.6,10.1,2.6,16.2v59.5h-16.2v-55.5c0-3.4-0.3-6.8-0.8-10.1c-0.5-3.3-1.8-6-3.8-8.1c-2-2.1-5.2-3.2-9.5-3.2
		c-3.9,0-7.9,1.3-11.8,3.8c-3.9,2.6-7.2,5.2-9.8,7.8v65.3h-16.2v-55.5c0-3.4-0.3-6.8-0.8-10.1c-0.5-3.3-1.8-6-3.7-8.1
		c-2-2.1-5.1-3.2-9.5-3.2c-2.4,0-4.9,0.6-7.6,1.8c-2.7,1.2-5.2,2.7-7.6,4.5c-2.4,1.8-4.5,3.5-6.2,5.2v65.5h-16.2V332
		c0-2.4-0.2-5-0.6-8c-0.4-2.9-1-5.8-1.9-8.6C377.4,312.5,376.3,310.1,375,308.1z M336,362v-5.4c-3.1,0-6.5,0.1-10.4,0.4
		c-3.8,0.2-7.5,0.9-11.1,2c-3.6,1.1-6.5,2.9-8.8,5.3c-2.3,2.4-3.5,5.7-3.5,9.8c0,3.7,1.3,6.4,3.9,8.1c2.6,1.7,5.8,2.6,9.5,2.6
		c4,0,7.6-1.1,10.6-3.4c3-2.3,5.4-5.2,7.1-8.7C335.2,369.3,336,365.7,336,362z M323.5,305.4c9.4,0,16.5,2.5,21.4,7.6
		c4.9,5.1,7.3,12.3,7.3,21.7v43.2c0,2.7,0.5,4.6,1.4,5.5s2.1,1.4,3.6,1.4c1.1,0,2.2-0.2,3.4-0.5c1.2-0.3,2.3-0.7,3.4-1.1l3.2,10.2
		c-2,1.2-4.5,2.2-7.5,3.1c-3,0.9-6,1.3-9.1,1.3c-3.3,0-6.2-0.9-8.7-2.6c-2.5-1.7-4.1-4.9-4.8-9.5c-3.5,3.9-7.5,7-12,9.2
		c-4.6,2.2-9.5,3.3-14.7,3.3c-7,0-12.9-2.1-17.6-6.2c-4.7-4.1-7.1-9.8-7.1-17c0-6.8,1.6-12.2,4.8-16.2c3.2-4,7.4-7.1,12.6-9.2
		c5.2-2.1,10.7-3.5,16.5-4.2c5.8-0.7,11.3-1.1,16.4-1.1v-10c0-4.9-1-8.9-3-12c-2-3.1-5.8-4.6-11.4-4.6c-4.4,0-8.7,0.9-12.7,2.8
		c-4.1,1.9-8.1,4.5-12.1,7.8l-7.7-11.4c5-3.8,10.5-6.7,16.4-8.6C311.3,306.4,317.4,305.4,323.5,305.4z M227,307.9l17.5-2
		c2.3,5.4,3.6,11,4.1,17c3.1-4.9,7.3-8.9,12.5-12.1c5.2-3.2,10.8-4.8,16.8-4.8l-3.6,16.8c-5.6,0-10.4,1.5-14.5,4.4
		c-4,2.9-7.7,6.8-10.9,11.5v57.7h-16.2v-64.5c0-2.3-0.2-4.9-0.5-8c-0.4-3-0.9-6-1.8-8.8C229.5,312.2,228.4,309.8,227,307.9z
		 M164.7,307.9l17.5-2c2.3,5.4,3.6,11,4.1,17c3.1-4.9,7.3-8.9,12.5-12.1c5.2-3.2,10.8-4.8,16.8-4.8l-3.6,16.8
		c-5.6,0-10.4,1.5-14.5,4.4c-4,2.9-7.7,6.8-10.9,11.5v57.7h-16.2v-64.5c0-2.3-0.2-4.9-0.5-8c-0.4-3-1-6-1.8-8.8
		C167.2,312.2,166.1,309.8,164.7,307.9z M115.1,317.4c-4,0-7.6,1.1-10.6,3.3c-3,2.2-5.4,5-7.2,8.5c-1.8,3.5-3,7-3.6,10.5h39.1
		c0.2-4.6-0.4-8.6-1.8-12c-1.4-3.3-3.5-5.9-6.2-7.7C122.1,318.3,118.9,317.4,115.1,317.4z M116.3,305.4c7.4,0,13.5,1.5,18.5,4.5
		c5,3,8.7,7.2,11.2,12.5c2.5,5.3,3.8,11.4,3.8,18.1c0,1.7-0.1,3.4-0.3,5.2c-0.2,1.8-0.4,3.7-0.8,5.7H92.6c0,10.8,2.5,19.2,7.4,25.2
		c5,6,11.5,8.9,19.6,8.9c3.4,0,7.1-0.5,10.9-1.6c3.8-1.1,7.7-2.7,11.8-5l5.5,9.6c-4,3.3-8.8,5.8-14.3,7.5
		c-5.5,1.7-10.8,2.5-16.1,2.5c-9.3,0-17.1-2.1-23.3-6.4c-6.2-4.3-10.9-9.9-14-17c-3.1-7-4.6-14.5-4.6-22.3c0-6.1,0.9-11.9,2.6-17.5
		c1.7-5.6,4.3-10.7,7.8-15.3c3.5-4.6,7.7-8.2,12.8-10.8C103.6,306.7,109.5,305.4,116.3,305.4z M2.6,277.7l-2.5-11.6h72.8v13.4H21
		v43.2H62v13.4H21v60.2H2.6V277.7z"/>
</g>
<g>
	<defs>
		<rect id="SVGID_3_" x="592.9" width="310.3" height="225.3"/>
	</defs>
	<clipPath id="SVGID_4_">
		<use xlink:href="#SVGID_3_"  style="overflow:visible;"/>
	</clipPath>
	<path class="st1" d="M863.1,201.8h-14.9c0-0.3,0.1-0.7,0.1-1.1v-92.1c0-6.4-4.7-11.5-10.6-11.5c-5.8,0-10.5,5.2-10.5,11.5v92.1
		c0,0.4,0,0.7,0,1.1h-39.4c0-0.3,0-0.7,0-1.1v-92.1c0-6.4-4.7-11.5-10.6-11.5c-5.8,0-10.6,5.2-10.6,11.5v92.1c0,0.4,0,0.7,0,1.1
		h-39.4c0-0.3,0.1-0.7,0.1-1.1v-92.1c0-6.4-4.7-11.5-10.6-11.5c-5.8,0-10.6,5.2-10.6,11.5v92.1c0,0.4,0,0.7,0.1,1.1h-39.4
		c0-0.3,0-0.7,0-1.1v-92.1c0-6.4-4.7-11.5-10.6-11.5c-5.8,0-10.6,5.2-10.6,11.5v92.1c0,0.4,0,0.7,0,1.1h-14.8
		c-8.6,0-15.5,12.6-15.5,23.5h262.9C878.6,216.1,871.7,201.8,863.1,201.8z M773.4,18.3c0-10.1-8.2-18.3-18.3-18.3h-12.7
		c-10.1,0-18.3,8.2-18.3,18.3L592.9,69.2c0,10.1,8.2,18.3,18.3,18.3h273.6c10.1,0,18.3-8.2,18.3-18.3L773.4,18.3z"/>
</g>
<g>
	<defs>
		<rect id="SVGID_5_" x="932.9" y="205.4" width="563.1" height="17"/>
	</defs>
	<clipPath id="SVGID_6_">
		<use xlink:href="#SVGID_5_"  style="overflow:visible;"/>
	</clipPath>
	<rect x="933.4" y="206" class="st2" width="562.6" height="15.5"/>
</g>
<g>
	<defs>
		<rect id="SVGID_7_" y="205.4" width="562.9" height="17"/>
	</defs>
	<clipPath id="SVGID_8_">
		<use xlink:href="#SVGID_7_"  style="overflow:visible;"/>
	</clipPath>
	<rect y="206" class="st3" width="562.6" height="15.5"/>
</g>
<g>
	<defs>
		<rect id="SVGID_9_" x="932.9" y="174.4" width="563.1" height="17"/>
	</defs>
	<clipPath id="SVGID_10_">
		<use xlink:href="#SVGID_9_"  style="overflow:visible;"/>
	</clipPath>
	<rect x="933.4" y="175.1" class="st4" width="562.6" height="15.5"/>
</g>
<g>
	<defs>
		<rect id="SVGID_11_" y="174.4" width="562.9" height="17"/>
	</defs>
	<clipPath id="SVGID_12_">
		<use xlink:href="#SVGID_11_"  style="overflow:visible;"/>
	</clipPath>
	<rect y="175.1" class="st5" width="562.6" height="15.5"/>
</g>
</svg>
